<svg width="1080" height="820" viewBox="0 0 1080 820" fill="none" xmlns="http://www.w3.org/2000/svg">
  <defs>
    <linearGradient id="bgGlow" x1="120" y1="120" x2="940" y2="700" gradientUnits="userSpaceOnUse">
      <stop stop-color="#FFF7D6" stop-opacity="0.95"/>
      <stop offset="0.5" stop-color="#FFFFFF" stop-opacity="0.98"/>
      <stop offset="1" stop-color="#FFEFB3" stop-opacity="0.92"/>
    </linearGradient>
    <linearGradient id="lineWarm" x1="226" y1="502" x2="820" y2="502" gradientUnits="userSpaceOnUse">
      <stop stop-color="#E7B400" stop-opacity="0.7"/>
      <stop offset="1" stop-color="#FFD400" stop-opacity="0.95"/>
    </linearGradient>
    <filter id="softShadow" x="150" y="130" width="760" height="610" filterUnits="userSpaceOnUse" color-interpolation-filters="sRGB">
      <feFlood flood-opacity="0" result="BackgroundImageFix"/>
      <feColorMatrix in="SourceAlpha" type="matrix" values="0 0 0 0 0 0 0 0 0 0 0 0 0 0 0 0 0 0 127 0" result="hardAlpha"/>
      <feOffset dy="18"/>
      <feGaussianBlur stdDeviation="24"/>
      <feColorMatrix type="matrix" values="0 0 0 0 0.109804 0 0 0 0 0.109804 0 0 0 0 0.12549 0 0 0 0.14 0"/>
      <feBlend mode="normal" in2="BackgroundImageFix" result="effect1_dropShadow_1_1"/>
      <feBlend mode="normal" in="SourceGraphic" in2="effect1_dropShadow_1_1" result="shape"/>
    </filter>
  </defs>

  <rect x="36" y="44" width="1008" height="732" rx="52" fill="url(#bgGlow)"/>

  <g opacity="0.6">
    <circle cx="908" cy="146" r="96" fill="#FFD400" fill-opacity="0.22"/>
    <circle cx="814" cy="666" r="114" fill="#FFD400" fill-opacity="0.14"/>
    <circle cx="236" cy="156" r="84" fill="#F6F4EC"/>
  </g>

  <g filter="url(#softShadow)">
    <rect x="194" y="178" width="692" height="498" rx="42" fill="white" fill-opacity="0.88"/>
    <rect x="194.5" y="178.5" width="691" height="497" rx="41.5" stroke="#E7E5E4"/>
  </g>

  <path d="M344 508C344 437.307 401.307 380 472 380H610C680.693 380 738 437.307 738 508V512C738 582.693 680.693 640 610 640H472C401.307 640 344 582.693 344 512V508Z" fill="#0F172A"/>
  <path d="M382 510C382 460.294 422.294 420 472 420H610C659.706 420 700 460.294 700 510C700 559.706 659.706 600 610 600H472C422.294 600 382 559.706 382 510Z" fill="#111827"/>

  <circle cx="430" cy="510" r="40" fill="#FFD400" fill-opacity="0.14"/>
  <circle cx="680" cy="510" r="16" fill="#FFD400" fill-opacity="0.28"/>

  <path d="M430 510C430 487.909 447.909 470 470 470H612C634.091 470 652 487.909 652 510C652 532.091 634.091 550 612 550H470C447.909 550 430 532.091 430 510Z" fill="#101828"/>
  <path d="M448 510C448 497.85 457.85 488 470 488H612C624.15 488 634 497.85 634 510C634 522.15 624.15 532 612 532H470C457.85 532 448 522.15 448 510Z" fill="#111827"/>

  <circle cx="540" cy="458" r="54" fill="#FFE37F" fill-opacity="0.45"/>
  <ellipse cx="540" cy="458" rx="30" ry="40" fill="#FFF7DA"/>
  <ellipse cx="548" cy="448" rx="10" ry="14" fill="#F4E6AE"/>

  <path d="M256 610H820" stroke="url(#lineWarm)" stroke-width="4" stroke-linecap="round"/>
  <path d="M262 610L334 562L412 586L490 520L564 544L648 460L734 490L816 418" stroke="#B99600" stroke-width="5" stroke-linecap="round" stroke-linejoin="round"/>

  <g fill="#FFD400" stroke="#A07700" stroke-width="3">
    <circle cx="334" cy="562" r="10"/>
    <circle cx="412" cy="586" r="10"/>
    <circle cx="490" cy="520" r="10"/>
    <circle cx="564" cy="544" r="10"/>
    <circle cx="648" cy="460" r="10"/>
    <circle cx="734" cy="490" r="10"/>
    <circle cx="816" cy="418" r="10"/>
  </g>

  <g stroke="#E7B400" stroke-width="3" stroke-linecap="round">
    <path d="M270 280H430"/>
    <path d="M270 316H390"/>
    <path d="M270 352H348"/>
  </g>

  <g>
    <circle cx="738" cy="274" r="13" fill="#FFD400"/>
    <circle cx="786" cy="322" r="13" fill="#FFD400" fill-opacity="0.88"/>
    <circle cx="702" cy="334" r="13" fill="#FFD400" fill-opacity="0.74"/>
    <path d="M738 274L786 322M738 274L702 334M702 334H786" stroke="#B98B00" stroke-width="3" stroke-linecap="round"/>
  </g>
</svg>
